<?xml version="1.0"?>
<svg xmlns="http://www.w3.org/2000/svg" xmlns:xlink="http://www.w3.org/1999/xlink" xmlns:svgjs="http://svgjs.com/svgjs" version="1.1" width="512" height="512" x="0" y="0" viewBox="0 0 512 512" style="enable-background:new 0 0 512 512" xml:space="preserve"><g><g xmlns="http://www.w3.org/2000/svg"><g><path d="m31.251 497h90.013v-74.571l-44.899-30-45.114 30z" fill="#ff668e" data-original="#ff668e" style=""/><path d="m150.745 497h90.013v-194.755l-45.007-30-45.006 30z" fill="#00dc7b" data-original="#00dc7b" style=""/><path d="m270.739 497h90.014v-137.271l-44.9-30-45.114 30z" fill="#e04496" data-original="#e04496" style=""/><path d="m390.733 294.331v202.669h90.014v-202.669l-44.9-30z" fill="#00aa8e" data-original="#00aa8e" style=""/></g><path d="m512 0v89.94h-30.016v-38.71l-159.448 159.45-64.665-64.67-49.847-49.85-186.682 186.69-21.232-21.2 207.914-207.93 49.847 49.85 64.665 64.67 138.236-138.24h-38.571v-30z" fill="#2ad7f5" data-original="#2ad7f5" style=""/><g><path d="m31.465 332.429h89.799v90h-89.799z" fill="#eaf4f4" data-original="#eaf4f4" style=""/></g><g><path d="m150.745 212.245h90.014v90h-90.014z" fill="#eaf4f4" data-original="#eaf4f4" style=""/></g><g><path d="m270.953 269.729h89.799v90h-89.799z" fill="#cae8ea" data-original="#cae8ea" style=""/></g><g><path d="m390.573 204.331h90.549v90h-90.549z" fill="#cae8ea" data-original="#cae8ea" style=""/></g><g><path d="m0 482h512v30h-512z" fill="#eaf4f4" data-original="#eaf4f4" style=""/></g><path d="m512 0v89.94h-30.016v-38.71l-159.448 159.45-64.665-64.67v-42.44l64.665 64.67 138.236-138.24h-38.571v-30z" fill="#3ba9ff" data-original="#3ba9ff" style=""/><path d="m256 482h256v30h-256z" fill="#cae8ea" data-original="#cae8ea" style=""/></g></g></svg>
