<svg id="Capa_1" enable-background="new 0 0 512 512" height="512" viewBox="0 0 512 512" width="512" xmlns="http://www.w3.org/2000/svg" xmlns:xlink="http://www.w3.org/1999/xlink"><linearGradient id="SVGID_1_" gradientUnits="userSpaceOnUse" x1="109.638" x2="211.316" y1="406.658" y2="230.547"><stop offset=".0319" stop-color="#a996eb"/><stop offset=".2213" stop-color="#bfb3eb"/><stop offset=".4108" stop-color="#d1c9eb"/><stop offset=".5321" stop-color="#d7d1eb"/><stop offset="1" stop-color="#e9e5f6"/></linearGradient><linearGradient id="lg1"><stop offset="0" stop-color="#dfdaef"/><stop offset="1" stop-color="#fff"/></linearGradient><linearGradient id="SVGID_2_" gradientTransform="matrix(.866 -.5 0 1.155 34.128 88.395)" gradientUnits="userSpaceOnUse" x1="253.662" x2="253.662" xlink:href="#lg1" y1="358.332" y2="142.911"/><linearGradient id="lg2"><stop offset=".0319" stop-color="#7662bd"/><stop offset="1" stop-color="#7662bd" stop-opacity="0"/></linearGradient><linearGradient id="SVGID_3_" gradientUnits="userSpaceOnUse" x1="109.285" x2="109.285" xlink:href="#lg2" y1="372.369" y2="429.421"/><linearGradient id="lg3"><stop offset="0" stop-color="#43386b"/><stop offset="1" stop-color="#7662bd"/></linearGradient><linearGradient id="SVGID_4_" gradientUnits="userSpaceOnUse" x1="109.52" x2="109.52" xlink:href="#lg3" y1="393.569" y2="276.696"/><linearGradient id="SVGID_5_" gradientTransform="matrix(.866 -.5 0 1.155 34.128 88.395)" gradientUnits="userSpaceOnUse" x1="101.381" x2="101.381" xlink:href="#lg3" y1="326.328" y2="237.966"/><linearGradient id="SVGID_6_" gradientUnits="userSpaceOnUse" x1="196.245" x2="196.245" xlink:href="#lg2" y1="321.812" y2="378.864"/><linearGradient id="SVGID_7_" gradientUnits="userSpaceOnUse" x1="196.48" x2="196.48" xlink:href="#lg3" y1="343.012" y2="226.139"/><linearGradient id="SVGID_8_" gradientTransform="matrix(.866 -.5 0 1.155 34.128 88.395)" gradientUnits="userSpaceOnUse" x1="201.796" x2="201.796" xlink:href="#lg3" y1="326.025" y2="237.664"/><linearGradient id="SVGID_9_" gradientUnits="userSpaceOnUse" x1="282.964" x2="282.964" xlink:href="#lg2" y1="271.606" y2="328.658"/><linearGradient id="SVGID_10_" gradientUnits="userSpaceOnUse" x1="283.2" x2="283.2" xlink:href="#lg3" y1="292.806" y2="175.933"/><linearGradient id="SVGID_11_" gradientTransform="matrix(.866 -.5 0 1.155 34.128 88.395)" gradientUnits="userSpaceOnUse" x1="301.934" x2="301.934" xlink:href="#lg3" y1="325.906" y2="237.545"/><linearGradient id="SVGID_12_" gradientUnits="userSpaceOnUse" x1="399.812" x2="399.812" xlink:href="#lg2" y1="423.19" y2="31.039"/><linearGradient id="SVGID_13_" gradientUnits="userSpaceOnUse" x1="392.872" x2="417.327" y1="277.741" y2="277.741"><stop offset="0" stop-color="#ffa538"/><stop offset="1" stop-color="#f7e041"/></linearGradient><linearGradient id="SVGID_14_" gradientUnits="userSpaceOnUse" x1="390.181" x2="479.865" y1="190.069" y2="241.849"><stop offset="0" stop-color="#ffa538"/><stop offset="1" stop-color="#fcf3b3"/></linearGradient><linearGradient id="lg4"><stop offset=".0319" stop-color="#8b451c"/><stop offset="1" stop-color="#8b451c" stop-opacity="0"/></linearGradient><linearGradient id="SVGID_15_" gradientUnits="userSpaceOnUse" x1="399.296" x2="354.622" xlink:href="#lg4" y1="241.038" y2="241.038"/><linearGradient id="SVGID_16_" gradientUnits="userSpaceOnUse" x1="488.418" x2="431.231" xlink:href="#lg4" y1="192.636" y2="192.636"/><linearGradient id="SVGID_17_" gradientUnits="userSpaceOnUse" x1="438.149" x2="438.149" xlink:href="#lg1" y1="230.362" y2="91.937"/><linearGradient id="SVGID_18_" gradientUnits="userSpaceOnUse" x1="467.865" x2="467.865" xlink:href="#lg2" y1="107.346" y2="176.056"/><g><path d="m445.313 92.989-40.71-23.471c-11.12-6.268-25.55-5.617-41.334 3.495l-299.645 173c-35.139 20.288-63.624 74.714-63.624 121.565 0 25.341 8.344 43.254 21.556 51.17l41.808 24.143z" fill="url(#SVGID_1_)"/><path d="m403.622 96.31-299.645 173.001c-35.138 20.287-63.623 74.713-63.623 121.564 0 46.851 28.485 68.385 63.623 48.098l299.645-173c35.138-20.287 63.623-74.713 63.623-121.564 0-46.852-28.485-68.386-63.623-48.099z" fill="url(#SVGID_2_)"/><g><path d="m74.928 377.109-.001 17.252c0 25.301 15.383 36.929 34.358 25.974s34.358-40.347 34.358-65.648c0-2.941-68.696-2.868-68.715 22.422z" fill="url(#SVGID_3_)"/><path d="m144.114 316.895-12.577-7.237c-5.996-3.343-13.761-2.974-22.251 1.928-18.975 10.956-34.358 40.347-34.358 65.648 0 14.321 4.931 24.256 12.65 28.2l12.07 6.986z" fill="url(#SVGID_4_)"/><path d="m156.283 344.845c0-25.301-15.383-36.93-34.358-25.974s-34.358 40.347-34.358 65.648 15.383 36.93 34.358 25.974 34.358-40.347 34.358-65.648z" fill="url(#SVGID_5_)"/></g><g><path d="m161.887 326.552h-.001v17.252c0 25.301 15.383 36.929 34.358 25.974s34.358-40.347 34.358-65.647c.001-2.942-68.695-2.869-68.715 22.421z" fill="url(#SVGID_6_)"/><path d="m231.073 266.338-12.577-7.237c-5.996-3.342-13.761-2.974-22.251 1.928-18.976 10.956-34.358 40.347-34.358 65.648 0 14.321 4.931 24.256 12.65 28.2l12.07 6.986z" fill="url(#SVGID_7_)"/><path d="m243.242 294.288c0-25.301-15.383-36.93-34.358-25.974-18.976 10.955-34.358 40.347-34.358 65.647 0 25.301 15.383 36.93 34.358 25.974 18.975-10.955 34.358-40.347 34.358-65.647z" fill="url(#SVGID_8_)"/></g><g><path d="m248.607 276.346-.001 17.252c0 25.3 15.383 36.929 34.358 25.974 18.975-10.956 34.358-40.347 34.358-65.648 0-2.942-68.696-2.868-68.715 22.422z" fill="url(#SVGID_9_)"/><path d="m317.793 216.132-12.577-7.237c-5.996-3.343-13.761-2.974-22.251 1.928-18.975 10.956-34.358 40.347-34.358 65.648 0 14.321 4.931 24.256 12.65 28.2l12.07 6.986z" fill="url(#SVGID_10_)"/><path d="m329.962 244.082c0-25.301-15.383-36.93-34.358-25.974-18.975 10.955-34.358 40.347-34.358 65.647 0 25.301 15.383 36.93 34.358 25.974 18.975-10.955 34.358-40.347 34.358-65.647z" fill="url(#SVGID_11_)"/></g><path d="m461.264 163.318v-31.172c0-14.196-7.34-26.91-19.635-34.008s-26.974-7.098-39.268 0c-29.294 16.913-47.492 48.432-47.492 82.257v23.342c-3.63 2.7-7.155 5.453-10.542 8.271l-5.26 4.376-2.918 2.427c-.207.173-.398.35-.571.532-.443.464-.763.959-.989 1.47-.217.491-.347.997-.369 1.512-.005.116.007.232.012.349l-.016.005v83.365l69.406-40.071c29.904-17.265 54.977-59.256 61.786-100.261zm-22.54-3.905-10.779 4.319c-3.442 1.379-6.823 2.802-10.164 4.25-5.188 2.25-10.253 4.583-15.191 6.997-.313.153-.623.308-.935.461-2.049 1.01-4.077 2.033-6.081 3.07-.426.22-.855.439-1.279.66-2.297 1.201-4.572 2.415-6.809 3.652-.001.001-.003.002-.005.002-3.429 1.896-6.786 3.834-10.069 5.814v-8.244c0-25.798 13.879-49.838 36.221-62.737.508-.293 1.028-.542 1.556-.769 7.856-3.376 14.263-.063 16.767 1.832 4.278 3.236 6.77 8.432 6.77 13.895v26.798z" fill="url(#SVGID_12_)"/><g><path d="m512 195.538-147.701 44.372v99.383l.01-.003c.008 2.045 1.511 4.185 4.382 5.842l10.631 6.138 10.632 6.138c4.735 2.734 11.751 3.336 16.535 1.42l11.783-4.721c32.708-13.106 60.917-29.393 83.617-48.277l8.178-6.803c1.301-1.082 1.922-2.363 1.923-3.684l.01-.003z" fill="url(#SVGID_13_)"/><path d="m458.027 180.964 11.783-4.721c4.783-1.917 11.799-1.314 16.535 1.42l10.632 6.138 10.632 6.138c4.735 2.734 5.778 6.785 2.459 9.546l-8.178 6.803c-22.7 18.884-50.909 35.171-83.617 48.276l-11.783 4.721c-4.783 1.917-11.799 1.314-16.535-1.42l-10.631-6.138-10.632-6.138c-4.735-2.734-5.779-6.785-2.459-9.546l8.178-6.803c22.699-18.884 50.908-35.17 83.616-48.276z" fill="url(#SVGID_14_)"/><path d="m366.232 236.044c-3.32 2.762-2.276 6.812 2.459 9.546l4.971 2.87h23.655v-14.843h-28.167z" fill="url(#SVGID_15_)"/><path d="m417.562 200.058h63.042v-14.844h-32.741c-10.626 4.608-20.745 9.559-30.301 14.844z" fill="url(#SVGID_16_)"/><path d="m491.347 149.378c0-14.197-7.34-26.91-19.635-34.008-12.294-7.098-26.974-7.098-39.268 0-29.294 16.913-47.492 48.432-47.492 82.257v43.438l.021.002c.013 1.794 1.32 3.682 3.878 5.159 4.701 2.714 11.812 3.009 15.883.658 1.864-1.076 2.756-2.521 2.737-4.031l.022.002v-45.228c0-25.798 13.879-49.838 36.221-62.737 5.239-3.024 11.49-3.024 16.729 0 5.237 3.024 8.364 8.44 8.364 14.488v43.354l.025.002c.052 1.77 1.354 3.624 3.874 5.079 4.701 2.714 11.812 3.009 15.883.658 1.765-1.019 2.666-2.368 2.74-3.79l.018.002z" fill="url(#SVGID_17_)"/><path d="m477.756 192.787v-39.421c0-16.924-18.321-27.502-32.978-19.04 4.865-2.375 10.45-2.267 15.248.331 5.513 2.985 8.78 8.922 8.78 15.191v42.883l.025.002c.052 1.77 1.354 3.624 3.874 5.079 4.701 2.714 11.812 3.009 15.883.658 1.16-.67 1.94-1.484 2.364-2.366-8.713 1.13-13.196-3.317-13.196-3.317z" fill="url(#SVGID_18_)"/></g></g></svg>